<svg id="Layer_1" width="17px" height="17px" data-name="Layer 1" xmlns="http://www.w3.org/2000/svg" viewBox="0 0 11.34 11.34"><defs><style>.cls-1{fill:#f6f4f9;stroke:#f6f4f9;stroke-linecap:round;stroke-linejoin:round;stroke-width:0.28px;}</style></defs><path class="cls-1" d="M7.06,5.41,11,1.51A.4.4,0,0,0,11,1L10.38.38a.4.4,0,0,0-.56,0L5.93,4.28a.37.37,0,0,1-.52,0L1.52.38A.4.4,0,0,0,1,.38L.39,1a.4.4,0,0,0,0,.56l3.89,3.9a.37.37,0,0,1,0,.52L.39,9.83a.4.4,0,0,0,0,.56L1,11a.4.4,0,0,0,.56,0l3.89-3.9a.37.37,0,0,1,.52,0L9.82,11a.4.4,0,0,0,.56,0l.57-.57a.4.4,0,0,0,0-.56L7.06,5.93A.36.36,0,0,1,7.06,5.41Z"/></svg>